<?xml version="1.0" encoding="iso-8859-1"?>
<!-- Generator: Adobe Illustrator 16.0.4, SVG Export Plug-In . SVG Version: 6.00 Build 0)  -->
<!DOCTYPE svg PUBLIC "-//W3C//DTD SVG 1.1//EN" "http://www.w3.org/Graphics/SVG/1.1/DTD/svg11.dtd">
<svg version="1.1" id="Layer_1" xmlns="http://www.w3.org/2000/svg" xmlns:xlink="http://www.w3.org/1999/xlink" x="0px" y="0px"
	 width="624.667px" height="52.667px" viewBox="0 0 624.667 52.667" style="enable-background:new 0 0 624.667 52.667;"
	 xml:space="preserve">
<g>
	<path style="fill:#FFFFFF;stroke:#FFFFFF;stroke-width:0.5;stroke-miterlimit:10;" d="M4.72,11.357v17.024
		c0,2.033,0,3.594,1.271,5.409c0.944,1.343,2.723,2.251,4.683,2.251c1.924,0,3.703-0.871,4.61-2.215
		c1.271-1.778,1.271-3.34,1.271-5.445V11.357h2.977v17.024c0.036,3.122-0.363,6.208-3.049,8.277
		c-1.488,1.271-3.485,2.032-5.808,2.032c-1.888,0-4.248-0.544-5.917-2.032c-2.832-2.287-3.049-5.337-3.049-8.277V11.357H4.72z"/>
	<path style="fill:#FFFFFF;stroke:#FFFFFF;stroke-width:0.5;stroke-miterlimit:10;" d="M46.065,33.791l-0.036-22.434h2.904V38.22
		h-2.904L30.093,15.604l0.073,22.615h-2.904V11.357h3.049L46.065,33.791z"/>
	<path style="fill:#FFFFFF;stroke:#FFFFFF;stroke-width:0.5;stroke-miterlimit:10;" d="M56.7,11.357h2.977V38.22H56.7V11.357z"/>
	<path style="fill:#FFFFFF;stroke:#FFFFFF;stroke-width:0.5;stroke-miterlimit:10;" d="M65.158,11.357h3.158l8.894,22.979
		l8.93-22.979h3.158L78.625,38.22h-2.868L65.158,11.357z"/>
	<path style="fill:#FFFFFF;stroke:#FFFFFF;stroke-width:0.5;stroke-miterlimit:10;" d="M94.742,11.357h14.883v2.65H97.719v9.329
		h11.834v2.65H97.719v9.583h11.906v2.65H94.742V11.357z"/>
	<path style="fill:#FFFFFF;stroke:#FFFFFF;stroke-width:0.5;stroke-miterlimit:10;" d="M116.521,11.357h7.006
		c4.211,0,6.171,0.508,7.551,1.379c2.178,1.307,3.667,4.174,3.667,7.224c0.036,1.815-0.472,3.739-1.598,5.264
		c-1.597,2.178-3.521,2.686-5.989,2.94l6.679,10.056h-3.267l-7.587-11.725h0.871c1.888,0,4.501-0.036,5.954-1.379
		c1.416-1.379,2.033-3.013,2.033-4.937c0-1.997-0.98-4.102-2.65-5.191c-1.343-0.871-3.013-0.98-5.445-0.98h-4.21V38.22h-3.013
		V11.357z"/>
	<path style="fill:#FFFFFF;stroke:#FFFFFF;stroke-width:0.5;stroke-miterlimit:10;" d="M142.185,30.742
		c0.436,4.465,3.703,5.408,5.372,5.408c2.795,0,5.373-2.142,5.373-5.118c0-3.775-3.23-4.61-6.353-5.626
		c-2.178-0.654-6.861-2.033-6.861-7.115c-0.072-4.755,3.884-7.405,7.986-7.405c3.339,0,7.188,1.852,7.623,6.934h-2.977
		c-0.327-1.743-1.198-4.393-4.755-4.393c-2.687,0-4.901,1.815-4.901,4.61c-0.036,3.267,2.614,4.065,6.68,5.445
		c2.541,0.98,6.534,2.396,6.534,7.333c0,4.393-3.304,7.877-8.313,7.877c-4.501,0-8.24-2.831-8.422-7.949H142.185z"/>
	<path style="fill:#FFFFFF;stroke:#FFFFFF;stroke-width:0.5;stroke-miterlimit:10;" d="M162.331,11.357h2.977V38.22h-2.977V11.357z"
		/>
	<path style="fill:#FFFFFF;stroke:#FFFFFF;stroke-width:0.5;stroke-miterlimit:10;" d="M177.287,14.007h-6.607v-2.65h16.263v2.65
		H180.3V38.22h-3.013V14.007z"/>
	<path style="fill:#FFFFFF;stroke:#FFFFFF;stroke-width:0.5;stroke-miterlimit:10;" d="M198.703,28.781l-8.64-17.424h3.267
		l6.897,14.52l6.861-14.52h3.267l-8.64,17.424v9.438h-3.013V28.781z"/>
	<path style="fill:#FFFFFF;stroke:#FFFFFF;stroke-width:0.5;stroke-miterlimit:10;" d="M217.54,30.449
		c0-4.316,3.223-8.144,8.202-8.144c5.007,0,8.23,3.827,8.23,8.173s-3.223,8.145-8.23,8.145c-4.979,0-8.202-3.799-8.202-8.145V30.449
		z M219.64,30.507c0,3.512,2.676,6.159,6.101,6.159c3.453,0,6.101-2.647,6.101-6.188s-2.647-6.188-6.101-6.188
		c-3.425,0-6.101,2.647-6.101,6.188V30.507z"/>
	<path style="fill:#FFFFFF;stroke:#FFFFFF;stroke-width:0.5;stroke-miterlimit:10;" d="M237.544,24.435h-2.273v-1.698h2.273v-1.267
		c0-4.777,3.77-4.921,5.439-4.921v1.698c-1.065,0.058-3.338,0.058-3.338,3.425v1.065h3.338v1.698h-3.338V38.22h-2.101V24.435z"/>
	<path style="fill:#FFFFFF;" d="M256.044,38.22V11.357h6.861v10.091h8.784V11.357h6.861V38.22h-6.861V27.475h-8.784V38.22H256.044z"
		/>
	<path style="fill:#FFFFFF;" d="M284.067,25.079c0-8.785,6.752-14.23,14.157-14.23c8.276,0,14.193,6.461,14.193,13.939
		s-5.881,13.939-14.229,13.939c-8.458,0-14.121-6.715-14.121-13.612V25.079z M290.929,24.752c0,4.103,2.795,7.95,7.405,7.95
		c4.864,0,7.224-4.429,7.224-7.877c0-3.485-2.359-7.95-7.297-7.95c-4.755,0-7.332,4.065-7.332,7.841V24.752z"/>
	<path style="fill:#FFFFFF;" d="M324.723,11.357v16.226c0,0.908,0.036,2.178,0.472,3.231c0.472,1.053,1.343,1.888,3.013,1.888
		c1.706,0,2.577-0.763,2.977-1.742c0.436-1.017,0.436-2.323,0.436-3.376V11.357h6.861v16.226c0,4.501-0.98,6.498-2.687,8.241
		c-1.742,1.778-4.175,2.903-7.514,2.903c-1.961,0-5.519-0.472-7.732-2.867c-2.215-2.433-2.687-4.32-2.687-8.277V11.357H324.723z"/>
	<path style="fill:#FFFFFF;" d="M350.387,29.326c0,3.122,1.924,3.666,2.795,3.666c1.634,0,2.613-1.343,2.613-2.577
		c0-1.416-1.125-1.852-5.264-3.594c-1.888-0.762-6.57-2.65-6.57-7.696c0-5.409,4.9-8.276,9.402-8.276
		c3.702,0,8.93,1.888,9.038,8.349h-6.788c-0.145-0.908-0.362-2.614-2.468-2.614c-1.198,0-2.359,0.835-2.359,2.105
		c0,1.234,0.726,1.561,5.554,3.739c5.01,2.251,6.28,4.574,6.28,7.696c0,4.283-2.251,8.603-9.366,8.603
		c-7.042,0-9.874-4.138-9.692-9.401H350.387z"/>
	<path style="fill:#FFFFFF;" d="M370.932,17.383h-5.3v-6.026h17.424v6.026h-5.264V38.22h-6.86V17.383z"/>
	<path style="fill:#FFFFFF;" d="M385.379,25.079c0-8.785,6.752-14.23,14.157-14.23c8.276,0,14.193,6.461,14.193,13.939
		s-5.881,13.939-14.229,13.939c-8.458,0-14.121-6.715-14.121-13.612V25.079z M392.239,24.752c0,4.103,2.796,7.95,7.406,7.95
		c4.864,0,7.224-4.429,7.224-7.877c0-3.485-2.359-7.95-7.297-7.95c-4.755,0-7.333,4.065-7.333,7.841V24.752z"/>
	<path style="fill:#FFFFFF;" d="M435.472,27.729l-0.145-16.372h6.57V38.22h-5.953l-10.273-16.19l0.146,16.19h-6.57V11.357h5.917
		L435.472,27.729z"/>
	<path style="fill:#FFFFFF;" d="M461.438,2.239v47.974h-3.886V2.239H461.438z"/>
	<path style="fill:#FFFFFF;" d="M475.348,11.357h4.429v22.761h7.659v4.102h-12.088V11.357z"/>
	<path style="fill:#FFFFFF;" d="M490.993,11.357h4.429V38.22h-4.429V11.357z"/>
	<path style="fill:#FFFFFF;" d="M500.503,11.357h7.115c2.577,0,4.247,0.617,5.408,1.706c1.416,1.198,1.997,3.122,1.997,5.046
		c0,3.376-1.778,5.082-4.175,5.554c3.412,0.835,5.3,3.122,5.3,6.861c0,2.432-0.835,4.429-2.359,5.771
		c-1.198,1.161-3.013,1.924-5.3,1.924h-7.986V11.357z M504.932,22.248h1.924c1.089,0,1.924-0.218,2.505-0.69
		c0.799-0.689,1.089-1.633,1.089-2.868c0-1.307-0.436-2.214-1.089-2.723c-0.544-0.436-1.307-0.689-2.723-0.689h-1.706V22.248z
		 M504.932,34.299h2.541c1.307,0,2.215-0.29,2.832-0.835c0.871-0.616,1.307-1.633,1.307-3.121c0.036-1.452-0.472-2.614-1.307-3.268
		c-0.617-0.581-1.562-0.907-2.94-0.907h-2.433V34.299z"/>
	<path style="fill:#FFFFFF;" d="M520.25,11.357h6.244c3.884,0,5.989,0.871,7.114,2.069c1.525,1.561,2.396,3.63,2.396,6.316
		c0,1.524-0.254,3.085-0.944,4.356c-0.907,1.743-2.178,2.832-3.738,3.376l5.19,10.745h-4.973l-5.917-13.213
		c0.508,0,0.798,0,1.197-0.036c1.307-0.037,2.469-0.363,3.304-1.162c0.98-0.98,1.343-2.323,1.343-3.667
		c0-1.452-0.326-2.904-1.561-3.884c-0.835-0.653-2.069-0.799-3.558-0.799h-1.67V38.22h-4.429V11.357z"/>
	<path style="fill:#FFFFFF;" d="M542.211,38.22h-4.501l7.441-26.862h4.175l7.659,26.862h-4.501l-1.706-6.207h-6.897L542.211,38.22z
		 M547.294,17.564l-2.323,10.382h4.646L547.294,17.564z"/>
	<path style="fill:#FFFFFF;" d="M559.744,11.357h6.244c3.884,0,5.989,0.871,7.114,2.069c1.525,1.561,2.396,3.63,2.396,6.316
		c0,1.524-0.254,3.085-0.944,4.356c-0.907,1.743-2.178,2.832-3.738,3.376l5.19,10.745h-4.973l-5.917-13.213
		c0.508,0,0.798,0,1.197-0.036c1.307-0.037,2.469-0.363,3.304-1.162c0.98-0.98,1.343-2.323,1.343-3.667
		c0-1.452-0.326-2.904-1.561-3.884c-0.835-0.653-2.069-0.799-3.558-0.799h-1.67V38.22h-4.429V11.357z"/>
	<path style="fill:#FFFFFF;" d="M579.526,11.357h4.429V38.22h-4.429V11.357z"/>
	<path style="fill:#FFFFFF;" d="M589.219,11.357h12.887v4.102h-8.458v6.789h8.458v4.065h-8.458v7.805h8.458v4.102h-12.887V11.357z"
		/>
	<path style="fill:#FFFFFF;" d="M610.49,30.161c0.182,3.34,1.706,4.646,3.957,4.646c2.359,0,3.884-1.524,3.884-3.993
		c0-3.013-3.086-3.703-5.881-4.719c-2.649-1.053-5.917-2.577-5.917-7.224c-0.036-4.937,3.013-8.059,7.769-8.059
		c4.61,0,7.296,2.287,8.022,7.369h-4.283c-0.146-1.96-1.198-3.666-3.558-3.666c-2.105,0-3.412,1.561-3.412,3.666
		c0,2.904,2.831,3.521,5.917,4.646c2.577,1.017,5.88,2.687,5.88,7.877c0,4.938-3.63,8.022-8.458,8.022
		c-5.372,0-8.276-3.013-8.312-8.566H610.49z"/>
</g>
</svg>
